<?xml version="1.0" encoding="UTF-8"?>
<svg id="Layer_1" data-name="Layer 1" xmlns="http://www.w3.org/2000/svg" version="1.1" viewBox="0 0 276.731 218.703">
  <defs>
    <style>
      .cls-1 {
        fill: #414042;
      }

      .cls-1, .cls-2, .cls-3 {
        stroke-width: 0px;
      }

      .cls-2 {
        fill: #fff;
      }

      .cls-3 {
        fill: #a6595e;
      }
    </style>
  </defs>
  <g>
    <path class="cls-1" d="M8.409,32.881v26.66l-7.866,1v-26.66l7.866-1Z"/>
    <path class="cls-1" d="M13.156,58.938v-17.305c0-3.034.9-5.576,2.703-7.629,1.802-2.052,4.201-3.268,7.197-3.649,2.984-.379,5.268.216,6.85,1.786,1.582,1.569,2.373,4.015,2.373,7.335v17.031l-7.866,1v-17.031c0-1.628-.574-2.368-1.725-2.223-1.111.142-1.666,1.025-1.666,2.653v17.031l-7.866,1Z"/>
    <path class="cls-1" d="M48.574,35.432v19.004l-7.866,1v-19.004l-6.026.766v-7.656l19.899-2.53v7.657l-6.007.764Z"/>
    <path class="cls-1" d="M71.592,35.22v5.938l-5.134.653c-.698.088-1.191.256-1.482.5-.291.245-.436.615-.436,1.11,0,.56.147.909.445,1.047.297.138.903.149,1.821.032l5.289-.672v7.617l-6.181.785c-2.906.369-5.128-.048-6.665-1.252s-2.306-3.128-2.306-5.771v-10.449c0-2.552.727-4.624,2.18-6.215,1.453-1.591,3.497-2.554,6.133-2.889l6.839-.87v7.657l-5.018.638c-1.356.172-2.035.701-2.035,1.587,0,.521.162.861.484,1.022.323.161.898.188,1.725.083l4.34-.552Z"/>
    <path class="cls-1" d="M84.477,30.379v19.492l-7.866,1v-26.66l10.095-1.283c3.074-.391,5.457.075,7.149,1.396,1.887,1.479,2.829,3.54,2.829,6.184,0,2.695-1.17,5.116-3.507,7.263l4.533,10.419-8.254,1.05-3.816-8.108v-6.855l.62-.079c1.653-.21,2.479-1.031,2.479-2.464,0-1.263-.956-1.773-2.867-1.53l-1.396.177Z"/>
    <path class="cls-1" d="M111.544,31.489l7.499-.953c1.614,1.813,2.422,3.839,2.422,6.079,0,2.604-.947,4.912-2.839,6.923-1.892,2.012-4.221,3.193-6.984,3.545-3.592.456-6.64-.53-9.146-2.959-2.506-2.428-3.759-5.615-3.759-9.561s1.275-7.416,3.826-10.37,5.738-4.675,9.562-5.161c1.305-.166,2.751-.083,4.34.249v7.93c-1.24-.429-2.371-.578-3.391-.448-1.848.235-3.355,1.006-4.524,2.313s-1.754,2.886-1.754,4.734c0,1.888.543,3.317,1.628,4.285,1.085.969,2.551,1.336,4.398,1.102,1.175-.149,1.763-.569,1.763-1.26,0-.521-.388-.731-1.162-.633l-1.88.238v-6.055Z"/>
    <path class="cls-1" d="M134.252,30.165v7.031l-2.267.289v6.348l-7.866,1v-16.954c0-3.281.888-5.943,2.664-7.985,1.775-2.042,4.272-3.268,7.488-3.677,3.101-.394,5.394.138,6.878,1.596,1.485,1.458,2.229,3.906,2.229,7.344v17.226l-7.866,1v-16.699c0-1.042-.123-1.749-.368-2.121-.245-.373-.685-.519-1.317-.438-1.228.156-1.841,1.159-1.841,3.007v3.32l2.267-.288Z"/>
    <path class="cls-1" d="M147.602,15.187l7.867-1v15.84c0,1.238.196,2.036.591,2.396.394.359,1.172.466,2.334.318l.407-.052v7.734l-2.093.266c-2.867.364-5.103-.194-6.703-1.677-1.602-1.483-2.403-3.721-2.403-6.716V15.187Z"/>
    <path class="cls-1" d="M171.046,25.488v7.031l-2.267.288v6.348l-7.866,1v-16.953c0-3.281.888-5.943,2.664-7.985,1.775-2.042,4.272-3.268,7.488-3.677,3.101-.394,5.394.138,6.878,1.597,1.485,1.458,2.229,3.906,2.229,7.344v17.227l-7.866,1v-16.699c0-1.042-.123-1.749-.368-2.121-.245-.373-.685-.519-1.317-.438-1.228.156-1.841,1.159-1.841,3.008v3.32l2.267-.288Z"/>
    <path class="cls-1" d="M202.821,21.8l8.235-.832c-.543,4.366-2.019,7.874-4.428,10.524-2.409,2.649-5.551,4.221-9.426,4.714-3.94.501-7.237-.411-9.892-2.737-2.654-2.325-3.981-5.46-3.981-9.406,0-3.972,1.354-7.483,4.06-10.536,2.705-3.052,6.042-4.83,10.007-5.334,3.901-.496,7.156.418,9.766,2.743,1.809,1.606,3.087,4.002,3.836,7.188l-8.428,1.638c-.943-2.797-2.732-4.027-5.367-3.692-1.679.213-3.064.975-4.156,2.286-1.092,1.311-1.638,2.871-1.638,4.681,0,1.745.536,3.118,1.608,4.122,1.072,1.003,2.429,1.4,4.069,1.192,1.666-.212,2.993-.882,3.981-2.01s1.572-2.641,1.753-4.539Z"/>
    <path class="cls-1" d="M226.285,12.84v19.004l-7.866,1V13.84l-6.025.766v-7.656l19.898-2.53v7.656l-6.007.764Z"/>
    <path class="cls-1" d="M243.064,3.051v26.66l-7.866,1V4.051l7.866-1Z"/>
    <path class="cls-1" d="M266.237,13.738l8.234-.832c-.542,4.366-2.018,7.874-4.427,10.524s-5.552,4.221-9.427,4.714c-3.939.501-7.236-.411-9.891-2.737-2.654-2.325-3.981-5.46-3.981-9.406,0-3.972,1.354-7.483,4.059-10.536,2.706-3.052,6.042-4.831,10.008-5.334,3.901-.496,7.156.418,9.765,2.743,1.809,1.606,3.088,4.002,3.837,7.188l-8.429,1.638c-.942-2.797-2.731-4.028-5.367-3.693-1.679.213-3.063.976-4.155,2.286-1.092,1.311-1.638,2.872-1.638,4.681,0,1.745.536,3.118,1.608,4.122s2.429,1.4,4.068,1.192c1.667-.212,2.994-.882,3.982-2.01.987-1.128,1.572-2.641,1.753-4.54Z"/>
    <path class="cls-3" d="M.543,81.881l9.61-1.222c5.696-.724,8.544,1.173,8.544,5.691,0,2.239-.976,4.226-2.926,5.958,2.829.877,4.243,2.904,4.243,6.081,0,2.435-.833,4.481-2.499,6.139-.813.794-1.686,1.386-2.616,1.777-.93.392-2.183.688-3.759.888l-1.491.19v-6.855l1.337-.17c.787-.101,1.344-.271,1.666-.515s.484-.618.484-1.126c0-.859-.659-1.206-1.977-1.038l-1.511.192v-7.109c1.446-.185,2.17-.777,2.17-1.78,0-.925-.652-1.304-1.957-1.138l-1.453.185v19.512l-7.866,1v-26.66Z"/>
    <path class="cls-3" d="M41.773,76.64v17.285c0,3.047-.901,5.596-2.703,7.648-1.802,2.052-4.201,3.269-7.197,3.649-2.984.379-5.268-.217-6.85-1.786s-2.373-4.015-2.373-7.335v-17.031l7.866-1v17.012c0,1.628.574,2.369,1.725,2.223,1.11-.142,1.666-1.025,1.666-2.653v-17.012l7.866-1Z"/>
    <path class="cls-3" d="M54.426,82.2v19.492l-7.866,1v-26.66l10.094-1.283c3.074-.391,5.458.074,7.15,1.396,1.886,1.479,2.828,3.54,2.828,6.184,0,2.695-1.169,5.116-3.507,7.262l4.534,10.42-8.254,1.05-3.817-8.109v-6.855l.62-.078c1.654-.211,2.48-1.031,2.48-2.464,0-1.263-.956-1.772-2.868-1.53l-1.395.178Z"/>
    <path class="cls-3" d="M81.493,83.309l7.498-.953c1.615,1.813,2.422,3.84,2.422,6.079,0,2.604-.946,4.912-2.838,6.923-1.893,2.012-4.222,3.193-6.985,3.545-3.591.456-6.639-.53-9.146-2.959-2.506-2.428-3.759-5.615-3.759-9.561s1.276-7.416,3.827-10.37,5.738-4.675,9.562-5.16c1.305-.166,2.751-.083,4.34.249v7.93c-1.239-.429-2.37-.578-3.391-.448-1.847.235-3.354,1.006-4.523,2.313-1.17,1.308-1.754,2.886-1.754,4.734,0,1.888.543,3.317,1.628,4.285,1.085.969,2.551,1.336,4.397,1.102,1.176-.149,1.764-.569,1.764-1.26,0-.521-.388-.731-1.163-.633l-1.879.238v-6.055Z"/>
    <path class="cls-3" d="M108.716,78.501v5.938l-5.135.652c-.697.089-1.191.256-1.482.501-.29.245-.436.615-.436,1.11,0,.56.148.909.445,1.047.298.138.904.148,1.821.032l5.29-.673v7.617l-6.182.786c-2.906.369-5.127-.049-6.665-1.253-1.537-1.204-2.306-3.128-2.306-5.771v-10.449c0-2.552.727-4.623,2.18-6.214,1.453-1.592,3.498-2.555,6.133-2.89l6.84-.869v7.656l-5.019.638c-1.356.173-2.034.701-2.034,1.587,0,.521.161.861.484,1.022.322.161.897.188,1.724.084l4.341-.552Z"/>
    <path class="cls-3" d="M121.601,73.66v19.492l-7.867,1v-26.66l10.095-1.283c3.074-.391,5.457.075,7.149,1.396,1.887,1.479,2.829,3.539,2.829,6.183,0,2.695-1.169,5.117-3.507,7.263l4.534,10.42-8.254,1.049-3.817-8.108v-6.855l.62-.079c1.653-.21,2.479-1.03,2.479-2.464,0-1.262-.956-1.772-2.867-1.529l-1.395.177Z"/>
    <path class="cls-1" d="M27.998,126.391v19.199c0,2.396-.718,4.439-2.151,6.133s-3.287,2.684-5.561,2.973c-2.738.348-4.831-.643-6.277-2.972-.892,1.468-1.848,2.557-2.868,3.265-1.02.709-2.279,1.159-3.777,1.35-2.377.303-4.198-.221-5.464-1.57-1.267-1.351-1.899-3.443-1.899-6.282v-18.535l7.866-1v17.344c0,.859.068,1.417.204,1.673.136.257.409.358.823.306.775-.099,1.162-.805,1.162-2.12v-17.48l7.867-1v17.344c0,.833.07,1.385.213,1.652s.419.376.833.324c.775-.099,1.162-.852,1.162-2.258v-17.344l7.867-1Z"/>
    <path class="cls-1" d="M42.354,137.847v7.031l-2.267.288v6.348l-7.866,1v-16.953c0-3.281.888-5.942,2.664-7.984,1.775-2.043,4.272-3.269,7.488-3.677,3.101-.395,5.394.138,6.878,1.596,1.485,1.459,2.229,3.906,2.229,7.344v17.227l-7.866,1v-16.699c0-1.042-.123-1.749-.368-2.121s-.685-.519-1.317-.438c-1.228.155-1.841,1.158-1.841,3.007v3.32l2.267-.288Z"/>
    <path class="cls-1" d="M64.113,128.968v19.492l-7.866,1v-26.66l10.095-1.283c3.073-.392,5.457.074,7.149,1.396,1.886,1.479,2.829,3.54,2.829,6.184,0,2.695-1.17,5.116-3.508,7.262l4.534,10.42-8.254,1.049-3.817-8.108v-6.855l.62-.078c1.654-.21,2.48-1.031,2.48-2.464,0-1.263-.956-1.773-2.867-1.53l-1.396.178Z"/>
  </g>
  <g>
    <path class="cls-1" d="M192.32,72.75c-2.94,1.544-5.813,3.181-8.624,4.903l45.038,51.637c6.869-8.328,12.931-17.412,18.263-27.179.576-1.055.37-1.674-.376-2.508-4.311-4.816-8.577-9.673-12.83-14.541-6.506-7.445-12.989-14.911-19.768-22.696-7.322,3.482-14.647,6.675-21.703,10.382Z"/>
    <path class="cls-1" d="M181.123,79.267c-9.686,6.218-18.545,13.549-26.398,22.143-4.232,4.631-8.039,9.652-12.045,14.491-.556.672-.903,1.583-2.142,1.285-4.218-1.015-8.485-1.843-12.669-2.977-1.434-.389-2.062.091-2.811,1.073-7.353,9.627-14.732,19.235-22.101,28.85-1.928,2.516-3.846,5.04-5.798,7.599.308.145.405.231.502.231,5.26-.005,10.521-.002,15.781-.059.448-.005.959-.338,1.326-.652,1.907-1.631,3.771-3.312,5.66-4.964,2.267-1.983,4.543-3.956,6.814-5.933-1.621,4.082-3.379,7.974-5.209,11.833-.427.9-.366,1.496.313,2.261,7.585,8.553,15.122,17.148,22.719,25.69.334.375,1.193.601,1.687.464,2.802-.777,5.57-1.675,8.344-2.553,1.431-.453,2.849-.949,4.732-1.58-.55.584-.726.804-.935.988-3.781,3.319-7.591,6.605-11.327,9.974-.67.604-1.345,1.497-1.485,2.344-.604,3.665-1.011,7.362-1.488,11.048-.185,1.432-.367,2.865-.564,4.41.392-.104.568-.114.705-.193,12.955-7.497,25.882-15.044,38.89-22.447,1.75-.996,1.989-2.099,1.791-3.833-.453-3.971-.8-7.956-1.074-11.943-.038-.553.433-1.381.918-1.689,2.023-1.286,4.164-2.385,6.222-3.619,13.659-8.194,25.324-18.252,35.309-29.882l-45.667-52.358ZM144.813,151.561c3.402.191,5.964,3.193,5.751,6.587-.22,3.503-3.387,6.061-6.582,5.721-3.144-.082-6.016-2.954-5.763-6.549.238-3.389,3.074-5.956,6.594-5.759Z"/>
  </g>
  <g>
    <path class="cls-1" d="M266.237,50.565c-.34,7.495-11.473,38.296-16.762,46.612-10.421-11.921-20.852-23.853-31.358-35.871,15.481-5.428,31.526-9.172,48.12-10.741Z"/>
    <path class="cls-1" d="M83.824,210.808c.379-18.484,19.732-46.072,35.543-50.463-11.712,11.739-20.188,25.167-24.972,41.226,16.558-2.677,31.006-9.357,44.157-19.439-5.346,14.658-34.159,29.698-54.728,28.676Z"/>
    <path class="cls-2" d="M172.369,157.066c-13.265-.345-25.381-12.462-24.315-27.631,1.005-14.296,12.971-25.127,27.821-24.294,14.354.805,25.16,13.47,24.263,27.79-.926,14.779-14.289,25.572-27.769,24.135Z"/>
  </g>
  <g>
    <path class="cls-1" d="M205.999,209.317h3.391c2.01,0,3.015.791,3.015,2.372,0,.784-.344,1.436-1.032,1.955.998.433,1.497,1.205,1.497,2.317,0,.853-.294,1.531-.882,2.037-.287.241-.595.41-.923.506s-.771.144-1.326.144h-.526v-2.399h.472c.278,0,.474-.035.588-.106.114-.07.171-.194.171-.372,0-.301-.232-.451-.697-.451h-.533v-2.488c.511,0,.766-.176.766-.526,0-.323-.23-.485-.69-.485h-.513v6.829h-2.775v-9.331Z"/>
    <path class="cls-1" d="M218.312,212.117l-1.847,2.904v3.627h-1.943v-3.627l-1.861-2.904h1.972l.842,1.344.905-1.344h1.933Z"/>
    <path class="cls-1" d="M222.419,209.317h3.391c2.01,0,3.015.791,3.015,2.372,0,.784-.344,1.436-1.032,1.955.998.433,1.497,1.205,1.497,2.317,0,.853-.294,1.531-.882,2.037-.287.241-.595.41-.923.506s-.771.144-1.326.144h-.526v-2.399h.472c.278,0,.474-.035.588-.106.114-.07.171-.194.171-.372,0-.301-.232-.451-.697-.451h-.533v-2.488c.511,0,.766-.176.766-.526,0-.323-.23-.485-.69-.485h-.513v6.829h-2.775v-9.331Z"/>
    <path class="cls-1" d="M232.498,215.371v1.723h-.56v1.555h-1.943v-4.153c0-.804.22-1.429.658-1.874.438-.444,1.055-.667,1.85-.667.766,0,1.332.202,1.698.605.367.403.551,1.026.551,1.868v4.221h-1.943v-4.092c0-.255-.03-.432-.091-.53-.061-.1-.169-.148-.325-.148-.303,0-.454.227-.454.679v.814h.56Z"/>
    <path class="cls-1" d="M237.872,213.873v4.775h-1.943v-6.531h2.493c.76,0,1.348.188,1.766.564.466.421.699.955.699,1.603,0,.66-.289,1.217-.866,1.67l1.119,2.694h-2.038l-.942-2.105v-1.68h.153c.408,0,.612-.176.612-.526,0-.31-.236-.464-.708-.464h-.345Z"/>
    <path class="cls-1" d="M243.733,213.873v4.775h-1.943v-6.531h2.493c.76,0,1.348.188,1.766.564.466.421.699.955.699,1.603,0,.66-.289,1.217-.866,1.67l1.119,2.694h-2.038l-.942-2.105v-1.68h.153c.408,0,.612-.176.612-.526,0-.31-.236-.464-.708-.464h-.345Z"/>
    <path class="cls-1" d="M252.256,212.117l-1.847,2.904v3.627h-1.943v-3.627l-1.861-2.904h1.972l.842,1.344.905-1.344h1.933Z"/>
    <path class="cls-1" d="M259.138,211.997v6.651h-2.775v-9.331h3.616c1.586,0,2.828.36,3.726,1.08,1.066.861,1.6,2.03,1.6,3.507,0,1.413-.456,2.565-1.367,3.459s-2.085,1.34-3.521,1.34c-.169,0-.444-.009-.827-.027v-2.741h.444c1.618,0,2.427-.677,2.427-2.03,0-1.271-.795-1.907-2.386-1.907h-.937Z"/>
    <path class="cls-1" d="M268.697,215.371v1.723h-.56v1.555h-1.943v-4.153c0-.804.22-1.429.658-1.874.438-.444,1.055-.667,1.85-.667.766,0,1.332.202,1.698.605.367.403.551,1.026.551,1.868v4.221h-1.943v-4.092c0-.255-.03-.432-.091-.53-.061-.1-.169-.148-.325-.148-.303,0-.454.227-.454.679v.814h.56Z"/>
    <path class="cls-1" d="M276.731,212.117l-1.847,2.904v3.627h-1.943v-3.627l-1.861-2.904h1.972l.842,1.344.905-1.344h1.933Z"/>
  </g>
  <path class="cls-3" d="M194.181,122.84c-2.529-6.159-7.845-10.969-14.77-12.741-11.08-2.835-21.724,3.515-25.346,12.741h40.117Z"/>
  <path class="cls-3" d="M154.511,140.555c2.669,5.537,7.691,10.057,14.261,11.685,10.181,2.522,20.661-2.537,24.964-11.685h-39.226Z"/>
  <path class="cls-3" d="M195.385,126.84h-22.61l-6.163,6.163-6.163-6.163h-7.552c-.768,3.214-.668,6.547.153,9.714h42.096c.003-.014.008-.027.011-.04.801-3.328.836-6.607.228-9.674Z"/>
</svg>