<?xml version="1.0" encoding="UTF-8"?>
<svg id="Layer_1" data-name="Layer 1" xmlns="http://www.w3.org/2000/svg" version="1.1" viewBox="0 0 16 16">
  <defs>
    <style>
      .cls-1 {
        fill: #070909;
        stroke-width: 0px;
      }
    </style>
  </defs>
  <rect class="cls-1" x="11" y="9" width="1" height="1"/>
  <rect class="cls-1" x="4" y="9" width="1" height="1"/>
  <rect class="cls-1" x="10" y="8" width="1" height="1"/>
  <polygon class="cls-1" points="7 8 7 9 8 9 9 9 9 8 8 8 7 8"/>
  <rect class="cls-1" x="5" y="8" width="1" height="1"/>
  <rect class="cls-1" x="9" y="7" width="1" height="1"/>
  <rect class="cls-1" x="6" y="7" width="1" height="1"/>
  <rect class="cls-1" x="10" y="6" width="1" height="1"/>
  <rect class="cls-1" x="5" y="6" width="1" height="1"/>
  <path class="cls-1" d="M15,1V0H1v1H0v14h1v1h14v-1h1V1h-1ZM13,6v4h-1v1h1v1H3v-1h1v-1h-1v-5h1v1h1v-1h6v1h1v-1h1v1Z"/>
</svg>