<?xml version="1.0" encoding="UTF-8"?>
<svg id="Layer_1" data-name="Layer 1" xmlns="http://www.w3.org/2000/svg" version="1.1" viewBox="0 0 16 16">
  <defs>
    <style>
      .cls-1 {
        fill: #070909;
        stroke-width: 0px;
      }
    </style>
  </defs>
  <rect class="cls-1" x="3" y="11" width="1" height="1"/>
  <path class="cls-1" d="M15,1V0H1v1H0v14h1v1h14v-1h1V1h-1ZM15,7v3h-1v2h-1v1h-1v1h-2v-2h-1v-1h2v-1h1v-1h1v-3h-1v-2h-2v1h-4v-1h-2v2h-1v3h1v1h1v1h2v1h-3v1h2v1h-2v-1h-1v-1h-1v-2h-1v-4h1v-2h1v-1h1v-1h2v-1h4v1h2v1h1v1h1v2h1v1Z"/>
</svg>