<?xml version="1.0" encoding="UTF-8"?>
<svg id="Layer_1" data-name="Layer 1" xmlns="http://www.w3.org/2000/svg" version="1.1" viewBox="0 0 16 16">
  <defs>
    <style>
      .cls-1 {
        fill: #070909;
        stroke-width: 0px;
      }
    </style>
  </defs>
  <path class="cls-1" d="M12,11h-1v-2h-6v2h-1v2h2v-1h4v1h2v-2ZM8,11h-1v-1h2v1h-1Z"/>
  <polygon class="cls-1" points="10 7 10 8 11 8 12 8 12 7 11 7 10 7"/>
  <polygon class="cls-1" points="8 8 9 8 9 7 8 7 7 7 7 8 8 8"/>
  <polygon class="cls-1" points="5 8 6 8 6 7 5 7 4 7 4 8 5 8"/>
  <rect class="cls-1" x="9" y="6" width="1" height="1"/>
  <rect class="cls-1" x="6" y="6" width="1" height="1"/>
  <path class="cls-1" d="M15,1V0H1v1H0v14h1v1h14v-1h1V1h-1ZM14,5v1h-2v1h1v6h-1v1H4v-1h-1v-6h1v-1h-2v-2h1v-1h10v1h1v1Z"/>
</svg>